<svg id="Layer_1" data-name="Layer 1" xmlns="http://www.w3.org/2000/svg" viewBox="0 0 167.06 198.99"><defs><style>.cls-1{fill:#fff;}.cls-2{fill:#dd1863;}</style></defs><path class="cls-1" d="M504,817.09c-33.19-9.69-57.48-37.38-79.82-63.77-10.72-12.66-22.09-27.23-20.71-43.76,1.29-15.55,13.59-27.79,26-37.22,5.73-4.34,11.91-8.53,19-9.75,16-2.77,30.14,10,41.4,21.7a81,81,0,0,1,26-17.35c8.54-3.56,18.24-5.61,27-2.73,9.44,3.09,16.42,11.58,19.7,20.95s3.29,19.59,2.29,29.47A151.87,151.87,0,0,1,523,804.37c-7,7.18-16.05,14.1-26,12.83" transform="translate(-400.89 -620.85)"/><path class="cls-2" d="M504.63,814.67c-16.23-4.77-30.57-14.12-43.17-25.24-13-11.47-24.36-24.67-35.55-37.88-10.54-12.47-23.28-28.17-19.4-45.7,1.78-8,6.56-14.94,12.18-20.78a95.58,95.58,0,0,1,9.45-8.54A87,87,0,0,1,439,668.88a28.51,28.51,0,0,1,12.41-4.13,27.75,27.75,0,0,1,11.6,2c7.91,3,14.6,8.9,20.59,14.74,1.54,1.51,3,3,4.54,4.6a2.54,2.54,0,0,0,3.53,0A79.17,79.17,0,0,1,510.94,672c7.31-3.8,15.51-6.83,23.87-6.61a25.68,25.68,0,0,1,18.82,9.16c5,5.74,7.72,13.13,8.76,20.62,1.15,8.23.49,16.75-.7,24.93a150,150,0,0,1-25.62,64.57,143.45,143.45,0,0,1-14.73,17.81c-5.25,5.41-11.47,10.76-19.1,12.17a17.83,17.83,0,0,1-5.26.08,2.51,2.51,0,0,0-2.5,2.5,2.56,2.56,0,0,0,2.5,2.5c8.51,1,16.33-3.45,22.62-8.75s11.77-11.8,16.79-18.33a154.88,154.88,0,0,0,23.39-43.57,151.46,151.46,0,0,0,6.13-23.8c1.49-8.69,2.48-17.64,1.85-26.46-.61-8.55-2.83-17.11-7.78-24.21-4.48-6.42-10.88-11.56-18.59-13.38-9-2.12-18.3,0-26.62,3.49a84.16,84.16,0,0,0-22,13.52q-2.43,2.06-4.68,4.31h3.53c-11.93-12.4-28.26-27.21-47-21.6a45.94,45.94,0,0,0-13,6.7,130.37,130.37,0,0,0-10.91,8.56c-6.59,5.76-12.75,12.52-16.42,20.55a37.67,37.67,0,0,0-1.9,26.59c2.68,9,8.06,17,13.82,24.34,5.6,7.16,11.62,14,17.63,20.84s12.13,13.38,18.68,19.59c13,12.31,27.62,23.1,44.49,29.35,2.05.76,4.12,1.44,6.21,2.06,3.1.91,4.42-3.92,1.33-4.83Z" transform="translate(-400.89 -620.85)"/><path class="cls-1" d="M489.46,679.37a193.45,193.45,0,0,0-56.55-54.77c20.51,16.5,41.45,33.5,54.89,56.13-1-10-5.68-19.29-8.07-29.08s-2-21.42,5.35-28.33a66.53,66.53,0,0,0,7.32,50.49,117.3,117.3,0,0,1,32.88-47c-14,13.58-27,30.51-27.22,50A71.12,71.12,0,0,1,541,654.17a85.93,85.93,0,0,0-52.1,25.57" transform="translate(-400.89 -620.85)"/><path class="cls-2" d="M491.62,678.11a197.55,197.55,0,0,0-42.94-45.52q-7-5.4-14.51-10.15c-2.35-1.49-5.27,2.13-3,3.93C447,639.13,463,652.06,475.87,668a122.09,122.09,0,0,1,9.78,14c1.18,2,4.94,1.33,4.65-1.26-.95-8.68-4.28-16.68-6.83-25-2.09-6.82-3.5-14.12-1.83-21.2a18.89,18.89,0,0,1,5.21-9.48l-4.18-2.44a69.3,69.3,0,0,0,7.57,52.42,2.53,2.53,0,0,0,4.57-.6,115.06,115.06,0,0,1,32.24-46L523.51,625c-11.12,10.82-21.69,23.5-26,38.69a50.41,50.41,0,0,0-1.93,13.08,2.53,2.53,0,0,0,4.27,1.77,69.37,69.37,0,0,1,41.8-21.95c2.76-.38,2.14-5.22-.67-4.91A88.62,88.62,0,0,0,487.09,678c-2.24,2.32,1.29,5.86,3.54,3.54A83.74,83.74,0,0,1,528.69,659,80.3,80.3,0,0,1,541,656.67l-.66-4.91a73.52,73.52,0,0,0-44,23.24l4.26,1.76c.2-14.85,8.22-28.1,17.7-39,2.79-3.2,5.74-6.26,8.79-9.23,2.33-2.27-1.13-5.62-3.54-3.53a119.66,119.66,0,0,0-28.16,36A122.58,122.58,0,0,0,490,673.14l4.57-.59A64.18,64.18,0,0,1,487.49,624a2.52,2.52,0,0,0-4.18-2.43c-5.49,5.28-7.51,12.94-7.38,20.37.15,8.43,3.07,16.31,5.71,24.2a70.42,70.42,0,0,1,3.66,14.61l4.66-1.26c-10.66-17.88-25.89-32.35-41.74-45.6-4.47-3.73-9-7.39-13.54-11l-3,3.93A191.94,191.94,0,0,1,477.09,667c3.62,4.4,7,9,10.21,13.67,1.8,2.65,6.14.15,4.32-2.52Z" transform="translate(-400.89 -620.85)"/><path class="cls-1" d="M450.25,698.52c2.34,2.07.31,5.82-1.53,8.34s-3,7,0,8c2.49.92,4.73-2.21,4.71-4.86s-1.2-5.29-.73-7.91" transform="translate(-400.89 -620.85)"/><path class="cls-2" d="M448.48,700.29a3,3,0,0,1,.31.31c-.15-.18-.25-.12,0,0s0,.44,0,0a2.79,2.79,0,0,0,.1.39c-.12-.5-.08,0,0,.26s.1-.37,0,0c-.05.18-.08.36-.13.55a7,7,0,0,1-.26.77c-.14.38.15-.3,0,.07l-.21.44a16.18,16.18,0,0,1-1,1.7,19.57,19.57,0,0,0-1.82,3.09,11.26,11.26,0,0,0-.93,3.69,5.45,5.45,0,0,0,4.13,5.92c3.28.7,5.9-1.91,6.92-4.78a10.54,10.54,0,0,0,.16-5.35c-.14-.83-.32-1.66-.45-2.49-.08-.48,0,.26,0-.21,0-.25-.05-.49-.06-.73s0-.39,0-.59.06-.77,0-.49a2.57,2.57,0,0,0-1.74-3.08c-1.2-.27-2.86.37-3.08,1.75a14.72,14.72,0,0,0,.1,4.82,27.37,27.37,0,0,1,.54,3.85c0,.11,0,.22,0,.33,0-.44,0-.15,0,0s-.14.51-.21.76,0,0,0-.07a2.1,2.1,0,0,1-.15.3,2.46,2.46,0,0,1-.22.39s-.28.42-.11.2-.3.3-.38.38-.32.15,0,0a2.07,2.07,0,0,1-.25.15l.15,0-.37.1s.47,0,.18,0,.42.15,0,0,.29.25-.18-.1c-.12-.09.34.32,0,0s.34.35.11.12c-.05,0-.06-.18-.12-.22.09.06.15.55.08.14,0-.11,0-.23-.08-.34,0,.08,0,.59,0,.14,0-.09,0-.18,0-.27s0-.44,0-.66c0,.5,0,0,.06-.21s.12-.46.19-.69.16-.45.24-.68-.19.33,0,0a2.24,2.24,0,0,0,.13-.27,10.53,10.53,0,0,1,.78-1.29,22.26,22.26,0,0,0,1.77-2.86c1.36-2.8,1.92-6.23-.57-8.59a2.5,2.5,0,0,0-3.54,3.54Z" transform="translate(-400.89 -620.85)"/><path class="cls-1" d="M487,707l-.09,11.72c0,1,.07,2.16.9,2.71,1.66,1.09,3.28-1.59,3.25-3.58a17.65,17.65,0,0,0-3.15-9.81" transform="translate(-400.89 -620.85)"/><path class="cls-2" d="M484.53,707l-.06,8c0,1.34-.05,2.69,0,4a5.68,5.68,0,0,0,1.28,3.85,4,4,0,0,0,3.89,1.18,5,5,0,0,0,2.86-2.29c1.41-2.22,1.21-4.83.78-7.3a19.7,19.7,0,0,0-3.15-7.68,2.5,2.5,0,0,0-4.32,2.52,14.72,14.72,0,0,1,2.61,6.25c0,.09.15,1,.09.56q.06.5.09,1c0,.25,0,.5,0,.75a2.29,2.29,0,0,1,0,.37c.06-.35.06-.38,0-.1s-.14.51-.22.76c.13-.39.05-.11-.07.11a3.45,3.45,0,0,1-.2.32c.22-.25.24-.28.06-.08a1.36,1.36,0,0,1-.24.24c.28-.2.34-.26.18-.16s-.08.06.25-.1q-.39.09.24,0a1.1,1.1,0,0,1,.66.18c-.22-.14-.2-.12.06,0s.29.67.2.26c0-.13-.06-.26-.09-.39.05.33.05.34,0,.05,0-1.3,0-2.6,0-3.9l.07-8.43a2.5,2.5,0,0,0-5,0Z" transform="translate(-400.89 -620.85)"/><path class="cls-1" d="M499,787.68l-.06,6.81c0,.58,0,1.26.57,1.57,1.05.64,2.06-.92,2-2.07a9.77,9.77,0,0,0-2-5.7" transform="translate(-400.89 -620.85)"/><path class="cls-2" d="M496.54,787.68l0,4.82c0,1.77-.26,3.76,1.07,5.16a3.47,3.47,0,0,0,3.36.93,4.22,4.22,0,0,0,2.36-1.85,6.67,6.67,0,0,0,.56-5,11.52,11.52,0,0,0-2.08-4.75,2.7,2.7,0,0,0-1.5-1.15,2.53,2.53,0,0,0-1.92.25,2.48,2.48,0,0,0-1.15,1.49,2.45,2.45,0,0,0,.25,1.93,10.34,10.34,0,0,1,1.22,2.11l-.25-.59a10,10,0,0,1,.68,2.45l-.09-.66a6.3,6.3,0,0,1,.07,1.44l.09-.67a3.21,3.21,0,0,1-.21.75l.25-.6-.15.3c-.15.26-.27.2.14-.15a2.08,2.08,0,0,0-.21.22c0-.08.61-.4.19-.19l.59-.25a1,1,0,0,1-.25.08l.66-.09h-.26l.66.09-.18,0,.59.25c-.27-.11-.2-.22.15.17l.26.34a.81.81,0,0,1-.1-.18l.25.59a1.87,1.87,0,0,1-.13-.53l.09.67a32.34,32.34,0,0,1,0-3.55l0-3.82a2.5,2.5,0,0,0-5,0Z" transform="translate(-400.89 -620.85)"/><path class="cls-1" d="M531.32,706.9c-.39,2.88-1.74,5.6-1.78,8.5s2,6.22,4.91,5.91c2.55-.28,4-3.34,3.54-5.86s-2.24-4.56-4-6.47" transform="translate(-400.89 -620.85)"/><path class="cls-2" d="M528.91,706.24c-.44,3-1.7,5.75-1.86,8.78a9.12,9.12,0,0,0,2.84,7.12,6.07,6.07,0,0,0,7.59.6,7.85,7.85,0,0,0,3.07-6.92c-.35-3.45-2.52-6.12-4.75-8.6a2.5,2.5,0,0,0-3.53,0,2.54,2.54,0,0,0,0,3.53c.34.38.68.76,1,1.15l.52.63s.25.32.1.12.13.18.15.22a13.08,13.08,0,0,1,.82,1.27c.13.23.24.48.36.72s0,0,0-.07c0,.14.1.29.15.43s.12.53.2.78,0-.18,0-.18a.8.8,0,0,1,0,.27v.65c0,.06,0,.39,0,0s0,0,0,.13-.1.42-.17.63-.23.44,0,.09c-.11.18-.2.38-.31.56s-.1.15-.15.23c.09-.15.28-.3.06-.09s-.51.51-.26.28-.16.08-.25.14a.77.77,0,0,1-.24.12c.36,0,.34-.1.11-.07a1.1,1.1,0,0,0-.26.06c-.24.08.36,0,.11,0a1.08,1.08,0,0,0-.36,0c-.31,0,.25,0,.22,0a1.67,1.67,0,0,1-.5-.15s.54.32.12,0l-.23-.14-.22-.15c.15.1.29.26.09,0s-.29-.33-.45-.47.08.1.1.14-.11-.16-.15-.24l-.34-.59s-.18-.33,0-.05,0-.09,0-.16a7.41,7.41,0,0,1-.32-1.23c.1.51,0,0,0-.19a7.12,7.12,0,0,1,0-.8c0-.17,0-.34,0-.51,0,.28,0,.06,0-.09.06-.33.13-.66.2-1,.15-.63.32-1.25.49-1.86a30.23,30.23,0,0,0,.92-3.87,2.58,2.58,0,0,0-1.75-3.08c-1.18-.27-2.87.37-3.07,1.75Z" transform="translate(-400.89 -620.85)"/><path class="cls-1" d="M473.23,753.52c-.16,1.85-1.72,3.27-1.3,5a2.34,2.34,0,0,0,.53,1,1.5,1.5,0,0,0,2.62-.27c.59-1.18,0-3.37-1-3.19" transform="translate(-400.89 -620.85)"/><path class="cls-2" d="M470.73,753.52a1.1,1.1,0,0,1,0,.18l.09-.66a5.9,5.9,0,0,1-.4,1.36l.25-.59c-.27.64-.57,1.27-.83,1.91a6.47,6.47,0,0,0-.45,2,4.86,4.86,0,0,0,2.37,4.44,4.2,4.2,0,0,0,2.86.44,3.91,3.91,0,0,0,2.4-1.69,5.24,5.24,0,0,0,.65-4.16,4.73,4.73,0,0,0-1.1-2.13,3.32,3.32,0,0,0-1.42-.9,3.45,3.45,0,0,0-1.69,0,2.48,2.48,0,0,0-1.49,1.15,2.53,2.53,0,0,0-.26,1.92,2.59,2.59,0,0,0,1.15,1.5l.6.25a2.5,2.5,0,0,0,1.33,0h.05l-.67.09h.14l-.66-.09a.49.49,0,0,1,.17.06l-.59-.26a.91.91,0,0,1,.16.11l-.5-.39a1.66,1.66,0,0,1,.18.19l-.39-.51a2.26,2.26,0,0,1,.24.43l-.25-.6a3.24,3.24,0,0,1,.22.81l-.09-.66a3.7,3.7,0,0,1,0,.88l.09-.66a2.61,2.61,0,0,1-.16.61l.25-.6a2.15,2.15,0,0,1-.28.49l.39-.51a1.79,1.79,0,0,1-.28.27l.51-.39a1.92,1.92,0,0,1-.31.18l.6-.25a1.78,1.78,0,0,1-.33.09l.67-.09a1.88,1.88,0,0,1-.41,0l.67.09a1.89,1.89,0,0,1-.34-.09l.6.25a2,2,0,0,1-.45-.26l.51.39a2.59,2.59,0,0,1-.4-.41l.39.51a3,3,0,0,1-.29-.49l.25.6a3.58,3.58,0,0,1-.18-.64l.09.67a3.14,3.14,0,0,1,0-.75l-.09.67a5,5,0,0,1,.35-1.2l-.25.6c.28-.66.59-1.3.86-2a7.32,7.32,0,0,0,.47-2.13,2.5,2.5,0,0,0-4.26-1.77,2.85,2.85,0,0,0-.74,1.77Z" transform="translate(-400.89 -620.85)"/><path class="cls-1" d="M515,751l-2.12,8.28c-.3,1.17-.55,2.55.23,3.47,1.29,1.51,4-.08,4.19-2.06s-1.22-3.72-2.51-5.23" transform="translate(-400.89 -620.85)"/><path class="cls-2" d="M512.6,750.33l-1.66,6.5c-.56,2.2-1.38,4.59-.25,6.76a4.27,4.27,0,0,0,2.65,2.12,5,5,0,0,0,3.32-.41,5.55,5.55,0,0,0,3.16-4.81c.08-2.66-1.62-4.88-3.26-6.8a2.5,2.5,0,0,0-3.53,0,2.55,2.55,0,0,0,0,3.53l.5.6.25.31c-.19-.25-.2-.26,0,0a10.71,10.71,0,0,1,.74,1.15c.06.11.12.23.17.34-.12-.31-.13-.33,0-.07s.1.36.16.53.06.25,0-.11c0,.12,0,.25,0,.37s0,.26,0,.39l.05-.4a2.5,2.5,0,0,1-.07.26c-.09.25,0,.17.1-.22a2,2,0,0,0-.28.46c.18-.43.26-.31,0-.09-.47.46.32-.16,0,0l-.23.14c-.24.11-.16.08.23-.09a1.58,1.58,0,0,0-.37.11c.46,0,.56-.06.3,0h-.24c.46.07.56.08.31,0s-.15,0,.07,0,.25.11.09,0q.5.42.21.15c-.16-.17-.12-.13.1.13q-.18-.36.06.15a1.05,1.05,0,0,1-.06-.24c0-.19,0-.11,0,.25a2.78,2.78,0,0,1,0-.7c-.06.37-.06.42,0,.14,0-.12,0-.23.07-.35l.12-.51c.14-.56.29-1.12.43-1.68l1.69-6.61a2.5,2.5,0,0,0-4.82-1.33Z" transform="translate(-400.89 -620.85)"/></svg>